<?xml version="1.0" encoding="UTF-8"?>
<!-- Generator: Adobe Illustrator 22.1.0, SVG Export Plug-In . SVG Version: 6.00 Build 0)  -->
<svg version="1.1" id="Layer_1" xmlns="http://www.w3.org/2000/svg" xmlns:xlink="http://www.w3.org/1999/xlink" x="0px" y="0px" viewBox="0 0 437 482" style="enable-background:new 0 0 437 482;" xml:space="preserve">
<g>
	
		<linearGradient id="XMLID_2_" gradientUnits="userSpaceOnUse" x1="247.3441" y1="653.4339" x2="324.0801" y2="653.4339" gradientTransform="matrix(0.6272 0.7789 -0.7789 0.6272 415.8582 -250.8239)">
		<stop offset="0" style="stop-color:#FF7649"/>
		<stop offset="1" style="stop-color:#B34957"/>
	</linearGradient>
	<path id="XMLID_27_" style="fill:url(#XMLID_2_);" d="M125.6,368.5c0,0-33.5,14.2-66.1,7.3c-1.1-3.4-4.3-7.7-7.1-7.4   c-0.6,0.8-1.1,3.4-0.8,7c-3.7-1.8-12.2-5.6-12.2-5.6s-1.4,9,1.6,18c8,4.9,32.3,25.8,79.5,15.2C136.6,378.7,125.6,368.5,125.6,368.5   z"/>
	<path style="fill:#FFB399;" d="M59.5,375.8c-1.1-3.4-4.3-7.7-7.1-7.4c-0.6,0.8-1.1,3.4-0.8,7c-3.7-1.8-12.2-5.6-12.2-5.6   s-1.4,9,1.6,18c3.3,2,9.4,6.8,18.7,10.9c1.3-8,3.5-16.7,4.9-22C63,376.5,61.3,376.2,59.5,375.8z"/>
	<path style="opacity:0.5;fill:#DD512A;" d="M47.7,384.8c0,0,0,0,0.5-2.2c-2.6-1.4-6.2-3.6-9-5.3c0,0.8,0.1,1.6,0.2,2.5   C43.2,382.2,47.7,384.8,47.7,384.8z"/>
	<path style="fill:#2F35A1;" d="M151,470.2c-2.5,1.2-1.9,4.7,0.8,4.7H305c3.9,0,4.8-3.3,0-4C237.8,460.9,172.8,459.9,151,470.2z"/>
	<path style="fill:#2F35A1;" d="M318.8,474.9h9.9c0.6,0,1.1-0.5,1.1-1.1l0,0c0-0.5-0.4-1-0.9-1.1c-2.2-0.3-7.1-0.9-11.1-0.9   C315.6,471.9,314.8,474.9,318.8,474.9z"/>
	<linearGradient id="SVGID_1_" gradientUnits="userSpaceOnUse" x1="451.6772" y1="110.5608" x2="202.1947" y2="292.2379">
		<stop offset="0" style="stop-color:#FF7649"/>
		<stop offset="1" style="stop-color:#B34957"/>
	</linearGradient>
	<path style="fill:url(#SVGID_1_);" d="M421.7,232c-7.9,10.3-19.8,21.4-29.6,30.7c-9.8,9.2-19.3,9.4-26.7,7.8   c-7.9-1.7-32-13.7-36.8-16.1c-4.8-2.4-8-4.8-10-12.9c-1.5-6.2-2.1-16.7-0.1-29.6c-2-0.2-4.9-1.4-4.9-1.4s-23,23.2-33.3,32.9   c17.5,26.1,37.4,64.8,44.9,88c5,15.3,4,24.7-2.8,33.9c-2,2.7-5.6,6.6-10.3,11.2c3.4,0,7.3-0.2,11-0.7   c-8.9,10.3-40.4,27.8-40.4,27.8s2,0.2,10.1-0.2c-15.9,15.6-47.7,31.1-61.7,37.5c-1.9,1-3.7,2-5.4,2.7c-9.9,4.4-17.3,3.6-25.8-3.1   c-0.5-0.4-1-0.8-1.6-1.3c0,0-0.1,0-0.1-0.1c-0.8-0.6-1.6-1.3-2.4-2c-0.3-0.2-0.5-0.5-0.8-0.7c-0.3-0.2-0.6-0.5-0.8-0.7   c-0.3-0.2-0.6-0.5-0.8-0.8c-4.1-3.7-8.2-7.7-11.1-10.5c-0.3-0.3-0.6-0.6-0.9-0.9c-0.2-0.2-0.3-0.3-0.5-0.5   c-0.2-0.2-0.3-0.3-0.5-0.5c-1.2-1.2-1.9-1.9-1.9-1.9l-7-12.6l-2.4-0.3l-39.4-4.2c0,0-19.7-14.1,3.6-19.8c6.1-1.5,11.6-2.5,17.4-3.6   c5.5-1,10.2-2.6,14.2-4.6c0.5-0.3,1-0.5,1.4-0.8c0.9-0.5,1.8-1.1,2.7-1.7c0.9-0.6,1.7-1.2,2.4-1.8h0c0.4-0.3,0.8-0.6,1.1-1   c0.3-0.3,0.7-0.6,1-0.9c0,0,0.1-0.1,0.1-0.1c0.4-0.3,0.7-0.7,1-1c0.3-0.4,0.7-0.7,1-1.1c7-8.1,9.7-18.8,9.9-30.1   c0.1-2.2,0-4.4-0.1-6.6c0-0.1,0-0.2,0-0.3c-0.1-1-0.1-2-0.2-3.1c0-0.1,0-0.1,0-0.2c-0.2-2.2-0.5-4.4-0.8-6.5c0,0,0,0,0,0   c-0.3-1.7-0.6-3.4-0.9-5c-0.1-0.5-0.2-1.1-0.3-1.6c-0.2-1.1-0.5-2.2-0.7-3.3c-0.1-0.2-0.1-0.4-0.2-0.6c-0.2-0.7-0.3-1.4-0.5-2   c-0.1-0.2-0.1-0.3-0.1-0.5c-0.3-1-0.5-2-0.8-3c-0.3-1.2-0.7-2.3-1-3.4c-0.3-0.9-0.5-1.7-0.8-2.6c-0.2-0.5-0.3-1-0.5-1.5   c-0.1-0.5-0.3-0.9-0.5-1.4c0,0,0,0,0,0c-0.1-0.4-0.3-0.9-0.4-1.3c-0.9-2.7-1.9-5.1-2.8-7.3c-1.4-3.3-2.6-6.1-3.6-8   c-11.2-22-7.2-33.7-4-48.5c1.4-6.4,11.8-51.5,23.3-81.4l0,0c3.4-8.9,6.9-16.4,10.3-21.2c1.9-2.7,5-7,8-10.8   c4.5-5.7,25.2-27.1,53.3-45.9c-1.6,6.9-2,11.9-2,11.9s22.9-22.2,39.6-29.8c-1.4,4-2.2,7.6-2.6,10.1c2.2-1,4.1-1.8,5.5-2.3   c11.4-4.1,23.8-9.1,39.9,2.3c2.2,1.6,4.5,3.5,6.9,5.7c4.9,4.1,30.9,26.5,46.1,50.3c-3.1-0.5-5.7-0.8-7.9-0.9   c14.9,23.4,27.6,47.7,32.6,60.7C428.6,201,431.8,218.8,421.7,232z"/>
	<path style="fill:#DF8D7C;" d="M398.2,135.6l-9.9,0.9c-3.1,0.3-5.6,2.8-5.7,5.9l-2.5,39.3c-0.2,3.7-3.8,6.3-7.4,5.3l-22.6-6.1   c-3.7-1-7.3,2-7,5.9l2.5,26.9c0.2,2.7-2.3,4.9-4.9,4.2l-22.1-5.6c-2,12.7-1.4,23.2,0.1,29.3c2,8,5.2,10.5,10,12.9   c4.8,2.4,28.9,14.4,36.8,16.1c7.5,1.6,16.9,1.4,26.7-7.8c9.8-9.2,21.7-20.3,29.6-30.7c10.1-13.2,6.9-31-1.6-53.3   C416.4,168.9,408.3,152.9,398.2,135.6z"/>
	<g>
		<path style="opacity:0.3;fill:#8E4654;" d="M260.4,210.2c0,0,13.1,22.3,19.9,33.2c4.5-4.2,11.4-11,17.7-17.3    C283.2,208.8,260.4,210.2,260.4,210.2z"/>
		<path style="opacity:0.3;fill:#8E4654;" d="M281.5,245.2c0.7,1.1,1.3,2.1,1.8,2.8C282.7,247.1,282.1,246.1,281.5,245.2z"/>
	</g>
	<path style="fill:#893D5A;" d="M245.2,406.6c-7.1,7.7-28,21.5-47,32.6c0,0,0,0,0,0c-0.8-0.7-1.6-1.4-2.4-2.1   c-0.3-0.2-0.5-0.5-0.8-0.7c-0.3-0.2-0.6-0.5-0.8-0.7c-0.3-0.2-0.6-0.5-0.8-0.8c-4.1-3.7-8.2-7.7-11.1-10.5   c-0.3-0.3-0.6-0.6-0.9-0.9c-0.2-0.2-0.3-0.3-0.5-0.5c-0.2-0.2-0.3-0.3-0.5-0.5c-1.2-1.2-1.9-1.9-1.9-1.9l-7-12.6l-2.4-0.2v0   l-4.2-32.2v0c0.5-0.2,1-0.5,1.4-0.8c0.9-0.5,1.8-1.1,2.7-1.7c0.9-0.6,1.7-1.2,2.4-1.8h0c0.4-0.3,0.8-0.7,1.1-1   c0.3-0.3,0.6-0.6,1-0.9c0,0,0.1-0.1,0.1-0.1c0.4-0.4,0.7-0.7,1-1c0.3-0.4,0.7-0.7,1-1.1c7-8.1,9.6-18.8,9.9-30.1   c0-2.2,0-4.4-0.1-6.6c0-0.1,0-0.2,0-0.3c-0.1-1-0.2-2-0.2-3.1c0-0.1,0-0.1,0-0.2c-0.2-2.2-0.5-4.4-0.8-6.5c0,0,0,0,0,0   c-0.3-1.7-0.6-3.4-0.9-5c-0.1-0.5-0.2-1.1-0.3-1.6c-0.2-1.1-0.5-2.2-0.7-3.3c-0.1-0.3-0.1-0.6-0.2-0.8c-0.2-0.7-0.4-1.4-0.5-2.1   c0-0.1,0-0.2-0.1-0.2c-0.3-1-0.5-2-0.8-3c-0.3-1.2-0.7-2.3-1-3.4c-0.3-0.9-0.5-1.7-0.8-2.6c-0.2-0.5-0.3-1-0.5-1.5   c-0.1-0.5-0.3-0.9-0.5-1.4c0,0,0,0,0,0c-0.2-0.4-0.3-0.9-0.4-1.3c-0.9-2.7-1.9-5.1-2.8-7.3c-1.4-3.3-2.6-6.1-3.6-8   c-11.2-22-7.2-33.7-4-48.5c1.4-6.4,11.8-51.5,23.3-81.4l0,0l0.3,11.1c1.3,41.8,10.1,83.1,26.2,121.7c1.4,3.3,2.5,5.7,3,6.7   c13.1,23.2,18.3,45.7,18.3,45.7l6.1-12.5c0,0,9.1,21.2,11.2,35C257.3,369.4,260.7,389.8,245.2,406.6z"/>
	<path style="fill:#FF703E;" d="M249,167.3c-1.9,1-4.8,3.6-5.5,4.8c-1.4,2.3,0.1,2.6,1.5,2c1.6-0.7,3.8-2.5,5.1-3.8   C252.5,167.8,252,165.6,249,167.3z"/>
	<path style="fill:#FF703E;" d="M267.3,246.5c-0.7-2.1-2.8-5.5-3.8-6.5c-2.1-1.9-2.7-0.4-2.4,1.2c0.4,1.8,1.9,4.4,3,5.9   C266.1,250,268.4,249.9,267.3,246.5z"/>
	<path style="fill:#FF703E;" d="M289.9,288.5c-0.7-2.1-2.8-5.5-3.8-6.5c-2.1-1.9-2.7-0.4-2.4,1.2c0.4,1.8,1.9,4.4,3,5.9   C288.7,292,291,291.9,289.9,288.5z"/>
	<path style="fill:#FF703E;" d="M306,331.2c-0.4-2.1-2-5.5-2.9-6.5c-1.8-2-2.5-0.7-2.3,0.9c0.2,1.7,1.3,4.3,2.2,5.9   C304.6,334.4,306.7,334.5,306,331.2z"/>
	<path style="fill:#FF703E;" d="M282.3,315.2c-0.4-2.1-2-5.5-2.9-6.5c-1.8-2-2.5-0.7-2.3,0.9c0.2,1.7,1.3,4.3,2.2,5.9   C280.8,318.4,283,318.5,282.3,315.2z"/>
	<path style="fill:#FF703E;" d="M281.9,96.7c-1.9,1-4.8,3.6-5.5,4.8c-1.4,2.3,0.1,2.6,1.5,2c1.6-0.7,3.8-2.5,5.1-3.8   C285.4,97.2,284.9,95.1,281.9,96.7z"/>
	<path style="fill:#FF703E;" d="M242,124.7c-1.7,0.9-4.2,3.2-4.9,4.2c-1.3,2.1,0.1,2.3,1.4,1.8c1.4-0.6,3.4-2.2,4.5-3.4   C245.1,125.2,244.6,123.3,242,124.7z"/>
	<path style="fill:#FF703E;" d="M270.8,129.5c-1.9,0.9-4.9,3.3-5.7,4.4c-1.6,2.2-0.1,2.6,1.4,2.1c1.7-0.6,4-2.3,5.3-3.5   C274.3,130.2,273.9,128.1,270.8,129.5z"/>
	<path style="fill:#FF703E;" d="M304.3,136.3c-1.9,0.9-4.9,3.2-5.7,4.4c-1.6,2.2-0.1,2.6,1.4,2.1c1.6-0.6,3.9-2.3,5.3-3.5   C307.8,137,307.4,134.9,304.3,136.3z"/>
	<path style="fill:#FF703E;" d="M320.3,104.7c-1.5-1.9-4.8-4.5-6.2-5c-2.8-1.1-2.8,0.6-1.9,2c1,1.6,3.5,3.7,5.1,4.8   C320.4,108.6,322.6,107.6,320.3,104.7z"/>
	<path style="fill:#FF703E;" d="M359.3,117.9c-1.5-1.9-4.8-4.5-6.2-5c-2.8-1.1-2.8,0.6-1.9,2c1,1.6,3.5,3.7,5.1,4.8   C359.5,121.9,361.7,120.9,359.3,117.9z"/>
	<path style="fill:#FF703E;" d="M342,85.4c-1.5-1.9-4.8-4.5-6.2-5c-2.8-1.1-2.8,0.6-1.9,2c1,1.6,3.5,3.7,5.1,4.8   C342.1,89.3,344.3,88.4,342,85.4z"/>
	<linearGradient id="SVGID_2_" gradientUnits="userSpaceOnUse" x1="37.4384" y1="426.6314" x2="251.4408" y2="377.6733">
		<stop offset="5.188301e-03" style="stop-color:#FFA330"/>
		<stop offset="1" style="stop-color:#E05C68"/>
	</linearGradient>
	<path style="fill:url(#SVGID_2_);" d="M176.1,472.2c-6.5,0.8-16.6,1-27.6,0.8c-10.2-0.2-21.1-0.7-30.7-1.4   c-11.6-0.8-21.1-2-24.7-3.1c-4.9-6.1-2.6-18.1-2.6-18.1l19-0.6c-1.7-6.9-10.3-58,0.5-101.4c6.8-27.2,39.1-23.8,60-20.4   c0,0,40.8,5.6,50.5,82.1C225.7,450.5,205.2,468.8,176.1,472.2z"/>
	<path style="fill:#FFB399;" d="M148.8,471.9c-0.1,0.4-0.2,0.7-0.3,1c-10.2-0.2-21.1-0.7-30.7-1.4c-2-11.8-6.2-37.8-7.4-60.8   c-1.4-27,29.9-22.4,38.2-8.2C159.2,420.8,151.1,462,148.8,471.9z"/>
	<path style="fill:#D35F3C;" d="M155.7,455.2c-0.1,0.8,24.5,1.9,27.9-19.1c3.3-20.4-5.5-38.2-5.5-38.2S167.3,389.5,155.7,455.2z"/>
	<path style="fill:#E86E43;" d="M108.8,353.8c-1.8,8.4-2.9,17-3.5,25.5c16.6,3.1,48.8,6.5,67.5-9.4   C193,352.9,136.3,339.2,108.8,353.8z"/>
	
		<linearGradient id="SVGID_3_" gradientUnits="userSpaceOnUse" x1="26.7318" y1="639.4285" x2="160.6618" y2="570.8469" gradientTransform="matrix(0.9998 2.085966e-02 -2.085966e-02 0.9998 102.5791 -153.3883)">
		<stop offset="0" style="stop-color:#FF9D52"/>
		<stop offset="1" style="stop-color:#E05C68"/>
	</linearGradient>
	<path style="fill:url(#SVGID_3_);" d="M140,477.4c0,0-6.7-13.1-5.6-19.1c10-0.8,34.5-1.4,56.5-24.4c15.3-13.7,17.2,20.2,9,31   C189.7,469.7,176.8,477.9,140,477.4z"/>
	<linearGradient id="XMLID_3_" gradientUnits="userSpaceOnUse" x1="84.2039" y1="396.0385" x2="184.3115" y2="396.0385">
		<stop offset="0" style="stop-color:#FFA330"/>
		<stop offset="1" style="stop-color:#E05C68"/>
	</linearGradient>
	<path id="XMLID_26_" style="fill:url(#XMLID_3_);" d="M164.7,373.5c0,0-27.8,17.9-57.5,17.8c-2-3.5-4.6-8.6-7.6-7.6   c-0.5,1-1,4.6-1,7.1c-4.6-1-11.2-3-11.2-3s-6.5,13.2-0.9,22.3c10.1,3.4,45.6,19.4,95.1-4.3C193.1,374.9,164.7,373.5,164.7,373.5z"/>
	<path style="fill:#FFFFFF;" d="M107,391.1c-2.1-4.2-4.7-8.7-7.7-7.7c-0.5,1-1,4.6-1,7.2c-4.6-1-11.3-3-11.3-3s-6.6,13.4-0.9,22.6   c4.5,1.5,13.8,5.5,27.2,7.4c-0.7-9.5-0.5-20.2-0.2-26.7C111,391,109,391.1,107,391.1z"/>
	<path style="fill:#FFCCB6;" d="M96.4,404.3c0,0,0,0,0-2.5c-3.4-0.9-8.3-2.6-11.9-3.8c-0.1,0.8-0.2,1.6-0.2,2.4   C89.4,402.1,96.4,404.3,96.4,404.3z"/>
	<g>
		
			<linearGradient id="XMLID_4_" gradientUnits="userSpaceOnUse" x1="-526.9949" y1="380.1262" x2="-309.9949" y2="380.1262" gradientTransform="matrix(0.9844 0.176 -0.176 0.9844 604.3369 -95.6987)">
			<stop offset="0" style="stop-color:#F68E40"/>
			<stop offset="1" style="stop-color:#E05C68"/>
		</linearGradient>
		<path id="XMLID_25_" style="fill:url(#XMLID_4_);" d="M215.8,316c-18.2-6.3-27.1-19.1-22.4-50.7c5.4-36.6,14.3-142.7-39.7-215.4    c-5.6,3.1-7.1,5.8-7.1,5.8s23.5,56,3.6,167.2c-12.9-7.4-35.6-16.5-35.6-16.5s5.8-89.4-39.7-147.3C70.5,60.4,68,63,68,63    s19.9,50.4,1.9,153.4c-15.6-1.3-28.9,11.5-31.7,27.2c-1.6,9.1,0.5,18.7,3,24c-17-5.1-30.4-9.7-30.4-9.7c0,0-4.1,0.3-6,5    c0,0,1.8,80.6,93.4,96.9c77.8,13.9,104-25.1,104-25.1s-9-0.6-15.4-4.8C196.9,330.9,212.3,324.5,215.8,316z"/>
		<path style="fill:#350F2E;" d="M116.8,28.7c0,0,22.6,21.3,29.8,26.7c4.5-2.2,7.9-4.7,7.9-4.7s-1.8-18.6-8.1-40    C136.7,14,126.6,19.3,116.8,28.7z"/>
		<path style="fill:#350F2E;" d="M37.9,38c0,0,21.7,20.1,30.8,26.8c5.7-3,7.9-3.7,7.9-3.7s-3.2-22.9-9.7-43.4    C50.2,25.9,37.9,38,37.9,38z"/>
		<g style="opacity:0.5;">
			<circle style="fill:#AA3B21;" cx="37.7" cy="289.4" r="2"/>
			<circle style="fill:#AA3B21;" cx="43.3" cy="304.5" r="2"/>
			<circle style="fill:#AA3B21;" cx="55.1" cy="294.2" r="2"/>
		</g>
		<circle style="opacity:0.5;fill:#F8B199;" cx="152.9" cy="311.1" r="12.5"/>
		<path style="fill:#350F2E;" d="M10.8,257.6c0,0-4.1,0.3-6,5c0,0,0.2,7.9,3.2,19.2c8.6-2.2,18-7.1,25.3-17    C20.8,261,10.8,257.6,10.8,257.6z"/>
		<path style="opacity:0.5;fill:#DC532A;" d="M114.4,181c-6,4.1-11.5,10.1-14.5,18.9l14.7,6C114.6,204.8,115.1,195.3,114.4,181z"/>
		
			<linearGradient id="XMLID_5_" gradientUnits="userSpaceOnUse" x1="-920.7734" y1="399.9481" x2="-864.3135" y2="378.2327" gradientTransform="matrix(0.8817 -0.4719 -0.4719 -0.8817 1041.7428 133.3031)">
			<stop offset="0" style="stop-color:#FF7649"/>
			<stop offset="0.6508" style="stop-color:#B34957"/>
			<stop offset="0.9143" style="stop-color:#8B363B"/>
		</linearGradient>
		<path id="XMLID_24_" style="fill:url(#XMLID_5_);" d="M64.2,208.9c3.2-0.3,11.5-1.2,21.9-4.2c1-0.3,2.1,0.2,2.5,1.1    c1.6,3.4,1.1,2.3,1.9,4.2c1.2,2.6-1,3.5-3.1,4.1c-3.5,0.9-14.4,2.2-23.2,0.1c-1-0.2-1.7-1.1-1.7-2.2c0-0.5,0-1,0.1-1.7    C62.8,209.6,63.5,209,64.2,208.9z"/>
		
			<linearGradient id="XMLID_6_" gradientUnits="userSpaceOnUse" x1="1157.5076" y1="-1515.0686" x2="1213.9675" y2="-1536.7841" gradientTransform="matrix(-0.5396 -0.8419 0.8419 -0.5396 2071.8088 401.3125)">
			<stop offset="0" style="stop-color:#FF7649"/>
			<stop offset="0.6508" style="stop-color:#B34957"/>
			<stop offset="0.9143" style="stop-color:#8B363B"/>
		</linearGradient>
		<path id="XMLID_23_" style="fill:url(#XMLID_6_);" d="M154.6,227.5c-2.6-1.8-9.5-6.7-17.1-14.4c-0.7-0.7-1.9-0.8-2.7-0.2    c-3.1,2.2-2.1,1.5-3.7,2.7c-2.3,1.7-0.8,3.5,0.7,5.1c2.6,2.6,11.5,8.9,20.2,11.4c1,0.3,2-0.2,2.5-1.1c0.2-0.4,0.5-0.9,0.7-1.5    C155.5,228.8,155.2,228,154.6,227.5z"/>
		<path style="fill:#FFFFFF;" d="M172.8,270.3c-0.6,3.2-1.6,6.1-3,8.8c-1.4,2.7-3.1,5.1-5.1,7.2l0,0c-7.3,7.7-18.2,11.7-29.4,9.6    c-16.7-3.2-27.9-18.7-25.9-35.4c0-0.3,0.1-0.5,0.1-0.8c0.1-0.5,0.1-0.9,0.2-1.4c0.4-2.2,1.1-4.3,1.9-6.3    c5.7-13.8,20.4-22.1,35.7-19.3c16.5,3.1,27.7,18.4,26,34.9C173.1,268.5,173,269.4,172.8,270.3z"/>
		<path style="fill:#FFFFFF;" d="M94.4,256.2c-0.3,1.8-0.7,3.5-1.3,5.1c-1.1,3.4-2.7,6.5-4.7,9.2c-6.3,8.5-16.4,13-26.8,10.8    c-9.9-2.1-17.6-9.8-21-19.7c-1.8-5.3-2.4-11.2-1.4-17.1c0.2-1.2,0.5-2.4,0.8-3.5c0.5-1.9,1.2-3.7,2-5.4    c5.6-11.9,17.6-18.9,30-16.2c14.2,3,23.8,17.5,22.8,33.2C94.8,253.8,94.6,255,94.4,256.2z"/>
		<circle style="fill:#893D5A;" cx="140.4" cy="269.3" r="27.1"/>
		<circle style="fill:#350F2E;" cx="140.4" cy="265.6" r="23.4"/>
		<circle style="fill:#FFFFFF;" cx="142.2" cy="275.7" r="6.3"/>
		<circle style="fill:#FFFFFF;" cx="135.7" cy="283" r="1.7"/>
		<ellipse style="fill:#893D5A;" cx="65.2" cy="254.4" rx="23.6" ry="26.5"/>
		<ellipse style="fill:#350F2E;" cx="65.2" cy="250.8" rx="20.4" ry="22.9"/>
		
			<ellipse transform="matrix(0.3142 -0.9494 0.9494 0.3142 -201.8174 243.6457)" style="fill:#FFFFFF;" cx="67.7" cy="261.5" rx="6.7" ry="6"/>
		<ellipse style="fill:#FFFFFF;" cx="60.6" cy="269.4" rx="2.1" ry="2.3"/>
		<path style="fill:none;stroke:#AA3B21;stroke-width:2;stroke-miterlimit:10;" d="M76.8,323.7c7-10.9,19-7.1,23.1,6.7"/>
		<path style="fill:#EBFFFF;" d="M127.8,293.7c6.4,1.8,7.4-1.7,12.1-1.5c4.7,0.2,5.2,3,9.4,0.8c4.1-2.2,6.5,1.2,6,3.3    c-0.5,2.1-3.7,1.4-3.5-0.5c0.1-2-4.3,0.7-8.4,1.3C139.9,297.5,134.2,296.5,127.8,293.7z"/>
		<path style="fill:#EBFFFF;" d="M53.3,278c6.2,2.4,5.7-3.6,10.4-2.9s4.8,6.5,9.2,4.7c4.4-1.8,7.5,1.4,7.4,5.7    c0,2.2-3.4,0.5-3.4-1.5c0-5.8-3.8-2.3-7.6-2C66.5,282.3,62.6,283.1,53.3,278z"/>
	</g>
</g>
</svg>